<svg class="tda-diagram " viewBox="0 0 660 310" role="img" aria-labelledby="tda-rips-digits.svg-title tda-rips-digits.svg-desc" xmlns="http://www.w3.org/2000/svg"><title id="tda-rips-digits.svg-title">Rips complexes of the digits 1, 0, and 8</title><desc id="tda-rips-digits.svg-desc">At epsilon 0.24 the connected complexes have respectively zero, one, and two independent loops. Shaded disks have radius epsilon/2. All edges and triangles satisfying the Rips rule are drawn.</desc><circle class="tda-ball" cx="110.00" cy="45.00" r="18.0"/><circle class="tda-ball" cx="125.00" cy="60.00" r="18.0"/><circle class="tda-ball" cx="110.00" cy="75.00" r="18.0"/><circle class="tda-ball" cx="110.00" cy="102.00" r="18.0"/><circle class="tda-ball" cx="110.00" cy="129.00" r="18.0"/><circle class="tda-ball" cx="110.00" cy="156.00" r="18.0"/><circle class="tda-ball" cx="110.00" cy="183.00" r="18.0"/><circle class="tda-ball" cx="110.00" cy="210.00" r="18.0"/><circle class="tda-ball" cx="98.00" cy="228.00" r="18.0"/><circle class="tda-ball" cx="110.00" cy="228.00" r="18.0"/><circle class="tda-ball" cx="122.00" cy="228.00" r="18.0"/><polygon class="tda-face" points="110.00,45.00 125.00,60.00 110.00,75.00"/><polygon class="tda-face" points="110.00,210.00 98.00,228.00 110.00,228.00"/><polygon class="tda-face" points="110.00,210.00 98.00,228.00 122.00,228.00"/><polygon class="tda-face" points="110.00,210.00 110.00,228.00 122.00,228.00"/><polygon class="tda-face" points="98.00,228.00 110.00,228.00 122.00,228.00"/><line class="tda-edge" x1="110.00" y1="45.00" x2="125.00" y2="60.00"/><line class="tda-edge" x1="110.00" y1="45.00" x2="110.00" y2="75.00"/><line class="tda-edge" x1="125.00" y1="60.00" x2="110.00" y2="75.00"/><line class="tda-edge" x1="110.00" y1="75.00" x2="110.00" y2="102.00"/><line class="tda-edge" x1="110.00" y1="102.00" x2="110.00" y2="129.00"/><line class="tda-edge" x1="110.00" y1="129.00" x2="110.00" y2="156.00"/><line class="tda-edge" x1="110.00" y1="156.00" x2="110.00" y2="183.00"/><line class="tda-edge" x1="110.00" y1="183.00" x2="110.00" y2="210.00"/><line class="tda-edge" x1="110.00" y1="210.00" x2="98.00" y2="228.00"/><line class="tda-edge" x1="110.00" y1="210.00" x2="110.00" y2="228.00"/><line class="tda-edge" x1="110.00" y1="210.00" x2="122.00" y2="228.00"/><line class="tda-edge" x1="98.00" y1="228.00" x2="110.00" y2="228.00"/><line class="tda-edge" x1="98.00" y1="228.00" x2="122.00" y2="228.00"/><line class="tda-edge" x1="110.00" y1="228.00" x2="122.00" y2="228.00"/><circle class="tda-point" cx="110.00" cy="45.00" r="3.3"/><circle class="tda-point" cx="125.00" cy="60.00" r="3.3"/><circle class="tda-point" cx="110.00" cy="75.00" r="3.3"/><circle class="tda-point" cx="110.00" cy="102.00" r="3.3"/><circle class="tda-point" cx="110.00" cy="129.00" r="3.3"/><circle class="tda-point" cx="110.00" cy="156.00" r="3.3"/><circle class="tda-point" cx="110.00" cy="183.00" r="3.3"/><circle class="tda-point" cx="110.00" cy="210.00" r="3.3"/><circle class="tda-point" cx="98.00" cy="228.00" r="3.3"/><circle class="tda-point" cx="110.00" cy="228.00" r="3.3"/><circle class="tda-point" cx="122.00" cy="228.00" r="3.3"/><text class="tda-label" x="110" y="267" text-anchor="middle">1</text><text class="tda-caption" x="110" y="295" text-anchor="middle">β₀ = 1 · β₁ = 0</text><circle class="tda-ball" cx="330.00" cy="52.50" r="18.0"/><circle class="tda-ball" cx="357.00" cy="57.00" r="18.0"/><circle class="tda-ball" cx="378.00" cy="75.00" r="18.0"/><circle class="tda-ball" cx="390.00" cy="102.00" r="18.0"/><circle class="tda-ball" cx="390.00" cy="135.00" r="18.0"/><circle class="tda-ball" cx="381.00" cy="165.00" r="18.0"/><circle class="tda-ball" cx="363.00" cy="186.00" r="18.0"/><circle class="tda-ball" cx="330.00" cy="195.00" r="18.0"/><circle class="tda-ball" cx="297.00" cy="186.00" r="18.0"/><circle class="tda-ball" cx="279.00" cy="165.00" r="18.0"/><circle class="tda-ball" cx="270.00" cy="135.00" r="18.0"/><circle class="tda-ball" cx="270.00" cy="102.00" r="18.0"/><circle class="tda-ball" cx="282.00" cy="75.00" r="18.0"/><circle class="tda-ball" cx="303.00" cy="57.00" r="18.0"/><line class="tda-edge" x1="330.00" y1="52.50" x2="357.00" y2="57.00"/><line class="tda-edge" x1="330.00" y1="52.50" x2="303.00" y2="57.00"/><line class="tda-edge" x1="357.00" y1="57.00" x2="378.00" y2="75.00"/><line class="tda-edge" x1="378.00" y1="75.00" x2="390.00" y2="102.00"/><line class="tda-edge" x1="390.00" y1="102.00" x2="390.00" y2="135.00"/><line class="tda-edge" x1="390.00" y1="135.00" x2="381.00" y2="165.00"/><line class="tda-edge" x1="381.00" y1="165.00" x2="363.00" y2="186.00"/><line class="tda-edge" x1="363.00" y1="186.00" x2="330.00" y2="195.00"/><line class="tda-edge" x1="330.00" y1="195.00" x2="297.00" y2="186.00"/><line class="tda-edge" x1="297.00" y1="186.00" x2="279.00" y2="165.00"/><line class="tda-edge" x1="279.00" y1="165.00" x2="270.00" y2="135.00"/><line class="tda-edge" x1="270.00" y1="135.00" x2="270.00" y2="102.00"/><line class="tda-edge" x1="270.00" y1="102.00" x2="282.00" y2="75.00"/><line class="tda-edge" x1="282.00" y1="75.00" x2="303.00" y2="57.00"/><circle class="tda-point" cx="330.00" cy="52.50" r="3.3"/><circle class="tda-point" cx="357.00" cy="57.00" r="3.3"/><circle class="tda-point" cx="378.00" cy="75.00" r="3.3"/><circle class="tda-point" cx="390.00" cy="102.00" r="3.3"/><circle class="tda-point" cx="390.00" cy="135.00" r="3.3"/><circle class="tda-point" cx="381.00" cy="165.00" r="3.3"/><circle class="tda-point" cx="363.00" cy="186.00" r="3.3"/><circle class="tda-point" cx="330.00" cy="195.00" r="3.3"/><circle class="tda-point" cx="297.00" cy="186.00" r="3.3"/><circle class="tda-point" cx="279.00" cy="165.00" r="3.3"/><circle class="tda-point" cx="270.00" cy="135.00" r="3.3"/><circle class="tda-point" cx="270.00" cy="102.00" r="3.3"/><circle class="tda-point" cx="282.00" cy="75.00" r="3.3"/><circle class="tda-point" cx="303.00" cy="57.00" r="3.3"/><text class="tda-label" x="330" y="267" text-anchor="middle">0</text><text class="tda-caption" x="330" y="295" text-anchor="middle">β₀ = 1 · β₁ = 1</text><circle class="tda-ball" cx="550.00" cy="42.00" r="18.0"/><circle class="tda-ball" cx="577.00" cy="46.50" r="18.0"/><circle class="tda-ball" cx="595.00" cy="64.50" r="18.0"/><circle class="tda-ball" cx="601.00" cy="88.50" r="18.0"/><circle class="tda-ball" cx="595.00" cy="109.50" r="18.0"/><circle class="tda-ball" cx="577.00" cy="124.50" r="18.0"/><circle class="tda-ball" cx="550.00" cy="130.50" r="18.0"/><circle class="tda-ball" cx="523.00" cy="124.50" r="18.0"/><circle class="tda-ball" cx="505.00" cy="109.50" r="18.0"/><circle class="tda-ball" cx="499.00" cy="88.50" r="18.0"/><circle class="tda-ball" cx="505.00" cy="64.50" r="18.0"/><circle class="tda-ball" cx="523.00" cy="46.50" r="18.0"/><circle class="tda-ball" cx="577.00" cy="136.50" r="18.0"/><circle class="tda-ball" cx="595.00" cy="153.00" r="18.0"/><circle class="tda-ball" cx="601.00" cy="177.00" r="18.0"/><circle class="tda-ball" cx="595.00" cy="201.00" r="18.0"/><circle class="tda-ball" cx="577.00" cy="220.50" r="18.0"/><circle class="tda-ball" cx="550.00" cy="226.50" r="18.0"/><circle class="tda-ball" cx="523.00" cy="220.50" r="18.0"/><circle class="tda-ball" cx="505.00" cy="201.00" r="18.0"/><circle class="tda-ball" cx="499.00" cy="177.00" r="18.0"/><circle class="tda-ball" cx="505.00" cy="153.00" r="18.0"/><circle class="tda-ball" cx="523.00" cy="136.50" r="18.0"/><polygon class="tda-face" points="595.00,109.50 577.00,124.50 577.00,136.50"/><polygon class="tda-face" points="577.00,124.50 550.00,130.50 577.00,136.50"/><polygon class="tda-face" points="577.00,124.50 577.00,136.50 595.00,153.00"/><polygon class="tda-face" points="550.00,130.50 523.00,124.50 523.00,136.50"/><polygon class="tda-face" points="523.00,124.50 505.00,109.50 523.00,136.50"/><polygon class="tda-face" points="523.00,124.50 505.00,153.00 523.00,136.50"/><line class="tda-edge" x1="550.00" y1="42.00" x2="577.00" y2="46.50"/><line class="tda-edge" x1="550.00" y1="42.00" x2="523.00" y2="46.50"/><line class="tda-edge" x1="577.00" y1="46.50" x2="595.00" y2="64.50"/><line class="tda-edge" x1="595.00" y1="64.50" x2="601.00" y2="88.50"/><line class="tda-edge" x1="601.00" y1="88.50" x2="595.00" y2="109.50"/><line class="tda-edge" x1="595.00" y1="109.50" x2="577.00" y2="124.50"/><line class="tda-edge" x1="595.00" y1="109.50" x2="577.00" y2="136.50"/><line class="tda-edge" x1="577.00" y1="124.50" x2="550.00" y2="130.50"/><line class="tda-edge" x1="577.00" y1="124.50" x2="577.00" y2="136.50"/><line class="tda-edge" x1="577.00" y1="124.50" x2="595.00" y2="153.00"/><line class="tda-edge" x1="550.00" y1="130.50" x2="523.00" y2="124.50"/><line class="tda-edge" x1="550.00" y1="130.50" x2="577.00" y2="136.50"/><line class="tda-edge" x1="550.00" y1="130.50" x2="523.00" y2="136.50"/><line class="tda-edge" x1="523.00" y1="124.50" x2="505.00" y2="109.50"/><line class="tda-edge" x1="523.00" y1="124.50" x2="505.00" y2="153.00"/><line class="tda-edge" x1="523.00" y1="124.50" x2="523.00" y2="136.50"/><line class="tda-edge" x1="505.00" y1="109.50" x2="499.00" y2="88.50"/><line class="tda-edge" x1="505.00" y1="109.50" x2="523.00" y2="136.50"/><line class="tda-edge" x1="499.00" y1="88.50" x2="505.00" y2="64.50"/><line class="tda-edge" x1="505.00" y1="64.50" x2="523.00" y2="46.50"/><line class="tda-edge" x1="577.00" y1="136.50" x2="595.00" y2="153.00"/><line class="tda-edge" x1="595.00" y1="153.00" x2="601.00" y2="177.00"/><line class="tda-edge" x1="601.00" y1="177.00" x2="595.00" y2="201.00"/><line class="tda-edge" x1="595.00" y1="201.00" x2="577.00" y2="220.50"/><line class="tda-edge" x1="577.00" y1="220.50" x2="550.00" y2="226.50"/><line class="tda-edge" x1="550.00" y1="226.50" x2="523.00" y2="220.50"/><line class="tda-edge" x1="523.00" y1="220.50" x2="505.00" y2="201.00"/><line class="tda-edge" x1="505.00" y1="201.00" x2="499.00" y2="177.00"/><line class="tda-edge" x1="499.00" y1="177.00" x2="505.00" y2="153.00"/><line class="tda-edge" x1="505.00" y1="153.00" x2="523.00" y2="136.50"/><circle class="tda-point" cx="550.00" cy="42.00" r="3.3"/><circle class="tda-point" cx="577.00" cy="46.50" r="3.3"/><circle class="tda-point" cx="595.00" cy="64.50" r="3.3"/><circle class="tda-point" cx="601.00" cy="88.50" r="3.3"/><circle class="tda-point" cx="595.00" cy="109.50" r="3.3"/><circle class="tda-point" cx="577.00" cy="124.50" r="3.3"/><circle class="tda-point" cx="550.00" cy="130.50" r="3.3"/><circle class="tda-point" cx="523.00" cy="124.50" r="3.3"/><circle class="tda-point" cx="505.00" cy="109.50" r="3.3"/><circle class="tda-point" cx="499.00" cy="88.50" r="3.3"/><circle class="tda-point" cx="505.00" cy="64.50" r="3.3"/><circle class="tda-point" cx="523.00" cy="46.50" r="3.3"/><circle class="tda-point" cx="577.00" cy="136.50" r="3.3"/><circle class="tda-point" cx="595.00" cy="153.00" r="3.3"/><circle class="tda-point" cx="601.00" cy="177.00" r="3.3"/><circle class="tda-point" cx="595.00" cy="201.00" r="3.3"/><circle class="tda-point" cx="577.00" cy="220.50" r="3.3"/><circle class="tda-point" cx="550.00" cy="226.50" r="3.3"/><circle class="tda-point" cx="523.00" cy="220.50" r="3.3"/><circle class="tda-point" cx="505.00" cy="201.00" r="3.3"/><circle class="tda-point" cx="499.00" cy="177.00" r="3.3"/><circle class="tda-point" cx="505.00" cy="153.00" r="3.3"/><circle class="tda-point" cx="523.00" cy="136.50" r="3.3"/><text class="tda-label" x="550" y="267" text-anchor="middle">8</text><text class="tda-caption" x="550" y="295" text-anchor="middle">β₀ = 1 · β₁ = 2</text></svg>